:FULLY-SPECIFIED
:FORCE-ALL-JOINTS-BE-3DOF
:DEGREES
544
root 8.13969 14.1307 -3.57642 -180.598 46.2491 -182.766
lfemur -33.966 -6.23218 -15.6694
ltibia 89.2998 0 0
lfoot -38.8771 -12.1853 0
ltoes -4.1178 0 0
rfemur -49.0086 -7.17228 -3.69352
rtibia 64.7114 0 0
rfoot -9.54833 0.759109 0
rtoes -39.1516 0 0
lowerback 13.1934 0.720407 1.87111
upperback 6.96843 2.13591 6.98114
thorax -0.269481 1.35758 6.00632
lowerneck -2.10206 -15.7927 -5.971
upperneck 8.65325 -21.4156 8.62617
head 4.51407 -10.3703 2.29356
lclavicle 8.71275e-14 9.02122e-15 0
lhumerus -45.7993 -12.7516 104.355
lradius 55.8014 0 0
lwrist 30.8966 0 0
lhand -24.1039 -2.96599 0
lfingers 7.12502 0 0
lthumb 2.378 27.008 0
rclavicle 8.71275e-14 9.02122e-15 0
rhumerus 6.33053 18.7661 -88.5967
rradius 135.215 0 0
rwrist -45.6731 0 0
rhand -28.8209 -22.8227 0
rfingers 7.12502 0 0
rthumb -2.17721 -772.809 0
545
root 8.20732 14.062 -3.53417 -180.66 46.2 -182.817
lfemur -33.9242 -6.17526 -15.4107
ltibia 89.3685 0 0
lfoot -39.173 -12.7493 0
ltoes -3.89005 0 0
rfemur -49.0723 -7.55137 -3.42129
rtibia 65.2717 0 0
rfoot -10.1905 0.489653 0
rtoes -39.1166 0 0
lowerback 13.1418 0.683322 1.80758
upperback 6.99252 2.07653 6.92486
thorax -0.209813 1.32763 5.99085
lowerneck -1.98492 -15.7377 -5.90166
upperneck 8.46591 -21.3534 8.71676
head 4.43682 -10.3417 2.33389
lclavicle 9.212e-14 8.28039e-15 0
lhumerus -45.8917 -12.1444 103.869
lradius 55.5726 0 0
lwrist 31.2243 0 0
lhand -24.3017 -2.80728 0
lfingers 7.12502 0 0
lthumb 2.18633 27.1625 0
rclavicle 9.212e-14 8.28039e-15 0
rhumerus 6.04861 19.2196 -89.0122
rradius 134.989 0 0
rwrist -45.2663 0 0
rhand -28.9739 -22.8282 0
rfingers 7.12502 0 0
rthumb -2.32579 -772.801 0
546
root 8.27496 13.9932 -3.49191 -180.679 46.2476 -182.851
lfemur -33.8195 -6.06227 -15.2041
ltibia 89.2534 0 0
lfoot -39.4126 -13.1434 0
ltoes -3.71562 0 0
rfemur -49.1044 -7.87279 -3.13947
rtibia 65.5529 0 0
rfoot -10.6015 0.319696 0
rtoes -39.0955 0 0
lowerback 13.073 0.64466 1.73793
upperback 6.99442 2.01168 6.86601
thorax -0.163486 1.29373 5.97631
lowerneck -1.89385 -15.686 -5.83792
upperneck 8.31418 -21.2934 8.77865
head 4.37216 -10.3141 2.36301
lclavicle 9.59862e-14 7.39751e-15 0
lhumerus -45.963 -11.6193 103.427
lradius 55.377 0 0
lwrist 31.4584 0 0
lhand -24.4824 -2.69797 0
lfingers 7.12502 0 0
lthumb 2.01146 27.2708 0
rclavicle 9.59862e-14 7.39751e-15 0
rhumerus 5.95851 19.5602 -89.2793
rradius 134.82 0 0
rwrist -44.9658 0 0
rhand -29.1201 -22.8352 0
rfingers 7.12502 0 0
rthumb -2.46749 -772.801 0
547
root 8.3426 13.9245 -3.44966 -180.653 46.3973 -182.868
lfemur -33.6469 -5.88619 -15.0556
ltibia 88.9407 0 0
lfoot -39.5906 -13.3481 0
ltoes -3.60323 0 0
rfemur -49.0997 -8.13052 -2.84987
rtibia 65.5231 0 0
rfoot -10.7566 0.259778 0
rtoes -39.0929 0 0
lowerback 12.986 0.604552 1.66225
upperback 6.9725 1.94136 6.80527
thorax -0.131767 1.25582 5.96331
lowerneck -1.83125 -15.6388 -5.78109
upperneck 8.20244 -21.237 8.80926
head 4.32172 -10.2881 2.37983
lclavicle 9.85972e-14 6.36111e-15 0
lhumerus -46.01 -11.1851 103.032
lradius 55.2192 0 0
lwrist 31.5909 0 0
lhand -24.6475 -2.6444 0
lfingers 7.12502 0 0
lthumb 1.85197 27.3273 0
rclavicle 9.85972e-14 6.36111e-15 0
rhumerus 6.08594 19.7702 -89.381
rradius 134.72 0 0
rwrist -44.7914 0 0
rhand -29.263 -22.8451 0
rfingers 7.12502 0 0
rthumb -2.6057 -772.809 0
548
root 8.30614 14.0206 -3.4548 -180.599 46.6695 -182.891
lfemur -33.3925 -5.64877 -14.9621
ltibia 88.3886 0 0
lfoot -39.7095 -13.38 0
ltoes -3.54129 0 0
rfemur -49.0658 -8.31932 -2.53599
rtibia 65.151 0 0
rfoot -10.6439 0.317569 0
rtoes -39.1099 0 0
lowerback 12.8748 0.560479 1.57748
upperback 6.92131 1.86063 6.73716
thorax -0.116602 1.21111 5.94844
lowerneck -1.79823 -15.5908 -5.72638
upperneck 8.12384 -21.1766 8.80384
head 4.28225 -10.2603 2.38332
lclavicle 1.00021e-13 5.07131e-15 0
lhumerus -46.0573 -10.8223 102.69
lradius 55.0934 0 0
lwrist 31.603 0 0
lhand -24.7818 -2.64582 0
lfingers 7.12502 0 0
lthumb 1.72233 27.3305 0
rclavicle 1.00021e-13 5.07131e-15 0
rhumerus 6.41264 19.8838 -89.3199
rradius 134.66 0 0
rwrist -44.6916 0 0
rhand -29.3801 -22.852 0
rfingers 7.12502 0 0
rthumb -2.71877 -772.818 0
549
root 8.26967 14.1166 -3.45994 -180.533 47.0746 -182.938
lfemur -33.051 -5.35983 -14.9142
ltibia 87.5807 0 0
lfoot -39.7783 -13.2762 0
ltoes -3.51004 0 0
rfemur -49.0145 -8.44219 -2.18251
rtibia 64.4496 0 0
rfoot -10.2831 0.486556 0
rtoes -39.1418 0 0
lowerback 12.7355 0.510266 1.48108
upperback 6.8384 1.76547 6.65649
thorax -0.118028 1.15747 5.92827
lowerneck -1.79283 -15.536 -5.66837
upperneck 8.06767 -21.1046 8.76168
head 4.24922 -10.2273 2.37395
lclavicle 1.00466e-13 3.46195e-15 0
lhumerus -46.128 -10.5049 102.398
lradius 54.9897 0 0
lwrist 31.4892 0 0
lhand -24.8715 -2.69397 0
lfingers 7.12502 0 0
lthumb 1.63581 27.2858 0
rclavicle 1.00466e-13 3.46195e-15 0
rhumerus 6.89314 19.9497 -89.1183
rradius 134.604 0 0
rwrist -44.6008 0 0
rhand -29.449 -22.8492 0
rfingers 7.12502 0 0
rthumb -2.78535 -772.816 0
550
root 8.23321 14.2127 -3.46509 -180.452 47.6022 -183.002
lfemur -32.6308 -5.02448 -14.9083
ltibia 86.5407 0 0
lfoot -39.8004 -13.0475 0
ltoes -3.50596 0 0
rfemur -48.9475 -8.50551 -1.79293
rtibia 63.4535 0 0
rfoot -9.69774 0.756008 0
rtoes -39.1846 0 0
lowerback 12.5705 0.454564 1.3739
upperback 6.72672 1.65736 6.56436
thorax -0.134447 1.09579 5.90333
lowerneck -1.81282 -15.4752 -5.60744
upperneck 8.03251 -21.0219 8.68625
head 4.2223 -10.1896 2.35286
lclavicle 1.00016e-13 1.57217e-15 0
lhumerus -46.2171 -10.2318 102.151
lradius 54.9061 0 0
lwrist 31.2614 0 0
lhand -24.9198 -2.78402 0
lfingers 7.12502 0 0
lthumb 1.58918 27.1983 0
rclavicle 1.00016e-13 1.57217e-15 0
rhumerus 7.51236 19.9718 -88.789
rradius 134.552 0 0
rwrist -44.5187 0 0
rhand -29.4737 -22.837 0
rfingers 7.12502 0 0
rthumb -2.80922 -772.805 0
551
root 8.19674 14.3087 -3.47023 -180.352 48.2418 -183.076
lfemur -32.1401 -4.64781 -14.9405
ltibia 85.2923 0 0
lfoot -39.7797 -12.7043 0
ltoes -3.52554 0 0
rfemur -48.8665 -8.51565 -1.37075
rtibia 62.1976 0 0
rfoot -8.91104 1.11519 0
rtoes -39.2343 0 0
lowerback 12.3823 0.394023 1.25678
upperback 6.58918 1.53775 6.46189
thorax -0.164263 1.02696 5.87417
lowerneck -1.85598 -15.409 -5.54397
upperneck 8.01691 -20.9298 8.58105
head 4.20117 -10.1476 2.32123
lclavicle 9.87523e-14 -5.58889e-16 0
lhumerus -46.3197 -10.002 101.944
lradius 54.8407 0 0
lwrist 30.9318 0 0
lhand -24.9301 -2.91111 0
lfingers 7.12502 0 0
lthumb 1.57924 27.0728 0
rclavicle 9.87523e-14 -5.58889e-16 0
rhumerus 8.2552 19.9542 -88.3448
rradius 134.504 0 0
rwrist -44.4446 0 0
rhand -29.4582 -22.8162 0
rfingers 7.12502 0 0
rthumb -2.79416 -772.786 0
552
root 8.16028 14.4048 -3.47537 -180.231 48.9833 -183.154
lfemur -31.5869 -4.23491 -15.007
ltibia 83.8593 0 0
lfoot -39.7196 -12.2576 0
ltoes -3.56529 0 0
rfemur -48.7733 -8.47899 -0.919498
rtibia 60.7168 0 0
rfoot -7.94635 1.55337 0
rtoes -39.2867 0 0
lowerback 12.1733 0.329292 1.13059
upperback 6.42872 1.40811 6.35019
thorax -0.205879 0.951889 5.8413
lowerneck -1.92006 -15.3379 -5.47833
upperneck 8.01944 -20.8295 8.44955
head 4.18551 -10.1018 2.28024
lclavicle 9.67585e-14 -2.8921e-15 0
lhumerus -46.4308 -9.81421 101.77
lradius 54.7918 0 0
lwrist 30.5123 0 0
lhand -24.9058 -3.07038 0
lfingers 7.12502 0 0
lthumb 1.60278 26.9143 0
rclavicle 9.67585e-14 -2.8921e-15 0
rhumerus 9.10657 19.9007 -87.7984
rradius 134.46 0 0
rwrist -44.3781 0 0
rhand -29.4062 -22.7872 0
rfingers 7.12502 0 0
rthumb -2.74398 -772.758 0
